<?xml version="1.0" encoding="UTF-8" standalone="no"?>
<!-- Created with Inkscape (http://www.inkscape.org/) -->

<svg
   xmlns:dc="http://purl.org/dc/elements/1.1/"
   xmlns:cc="http://creativecommons.org/ns#"
   xmlns:rdf="http://www.w3.org/1999/02/22-rdf-syntax-ns#"
   xmlns:svg="http://www.w3.org/2000/svg"
   xmlns="http://www.w3.org/2000/svg"
   xmlns:inkscape="http://www.inkscape.org/namespaces/inkscape"
   version="1.1"
   width="223.75"
   height="298.75"
   id="svg2"
   xml:space="preserve"><metadata
     id="metadata8"><rdf:RDF><cc:Work
         rdf:about=""><dc:format>image/svg+xml</dc:format><dc:type
           rdf:resource="http://purl.org/dc/dcmitype/StillImage" /></cc:Work></rdf:RDF></metadata><defs
     id="defs6" /><g
     transform="matrix(1.25,0,0,-1.25,0,298.75)"
     id="g10"><g
       transform="scale(0.1,0.1)"
       id="g12"><path
         d="m 1606.6,364.66 c -11.25,-10.121 -23.08,-20.32 -35.51,-30.469 -1.71,-1.679 -3.39,-3.402 -5.11,-5.043 -1.72,-2.308 -3.36,-4.218 -5.08,-5.937 -19.69,-26.52 -40.35,-51.91 -61.76,-76.211 39.45,36.129 75.31,75.352 107.46,117.66 m -117.65,1191.01 c 11.32,-3.36 12.18,1.13 2.57,13.59 -12.42,11.22 -25.11,21.96 -38.08,32.11 -2.85,1.72 -5.35,3.13 -7.66,4.26 -12.97,4.49 -13.51,-0.62 -1.68,-15.23 6.76,-7.35 14.38,-14.14 22.81,-20.35 8.48,-6.76 15.82,-11.57 22.04,-14.38 m -622.149,-420.7 c 1.719,-5.12 5.078,-8.99 10.148,-11.84 2.781,-1.72 5.903,-3.4 9.34,-5.12 4.492,-2.22 9.84,-3.08 16.051,-2.5 5.629,1.14 10.16,3.64 13.601,7.62 32.731,34.96 63.75,68.32 93.079,99.85 18.05,-62.62 35,-128.87 50.78,-198.91 16.37,-69.961 29.93,-142.191 40.63,-216.64 0.59,-6.84 3.36,-11.918 8.48,-15.27 5.62,-3.398 11.29,-4.262 16.91,-2.539 2.27,1.129 4.84,1.988 7.62,2.539 3.94,1.711 7.58,4.801 11.01,9.289 2.82,4.492 4.26,9.34 4.26,14.422 1.64,89.141 -1.99,176.051 -11.05,260.699 43.43,-75.08 81.29,-150.39 113.39,-226.058 1.76,-4.492 4.57,-7.571 8.48,-9.25 3.99,-1.723 7.7,-1.961 11.06,-0.864 2.77,1.133 5.35,1.993 7.61,2.543 4.5,1.719 7.85,5.348 10.16,11.008 2.77,6.172 3.4,11.84 1.68,16.961 -18.59,65.969 -40.35,130.35 -65.16,192.96 -24.84,63.21 -51.91,123.6 -81.29,181.14 42.86,-18.05 83.79,-36.64 122.78,-55.9 3.94,-2.23 7.58,-2.77 10.97,-1.64 3.36,1.13 5.94,3.36 7.58,6.76 0.63,1.71 1.13,3.08 1.72,4.21 1.13,3.99 0.86,8.21 -0.86,12.7 -2.23,5.08 -5.35,9.06 -9.3,11.84 -48.47,33.86 -99.6,65.82 -153.16,95.7 -3.44,2.23 -7.34,3.63 -11.91,4.22 -4.5,1.13 -8.48,1.4 -11.84,0.86 -36.64,-3.95 -74.73,-9.3 -114.3,-16.14 -3.942,-0.5 -7.848,-1.91 -11.829,-4.21 -3.363,-1.68 -6.211,-4.26 -8.441,-7.62 -29.879,-44.57 -62.109,-93.13 -96.48,-145.55 -2.27,-4.57 -2.86,-9.61 -1.719,-15.27 M 1390.74,214.031 c 11.33,6.719 21.49,14.649 30.47,23.668 8.48,9.063 13.59,17.5 15.31,25.391 1.64,7.93 -0.86,12.148 -7.69,12.699 -6.76,0.582 -16.06,-2.269 -27.89,-8.48 -12.46,-7.34 -23.17,-15.778 -32.15,-25.387 -9.06,-8.981 -14.14,-17.461 -15.27,-25.391 -0.55,-6.761 2.57,-10.472 9.33,-10.98 7.35,-0.582 16.64,2.23 27.89,8.48 M 699.219,1638.6 c -15.27,-3.94 -27.379,-9.57 -36.449,-16.91 -8.981,-7.85 -12.969,-15.47 -11.829,-22.82 2.219,-7.34 9.329,-12.18 21.168,-14.41 11.84,-2.27 25.981,-1.41 42.301,2.5 16.41,4.57 29.11,10.47 38.09,17.81 9.059,7.93 12.461,15.51 10.199,22.85 -3.359,6.76 -11.058,11.25 -22.898,13.56 -11.832,2.26 -25.391,1.41 -40.582,-2.58 m 210.742,-79.53 c -44.57,14.06 -87.731,25.98 -129.492,35.59 -2.309,1.09 -5.348,1.36 -9.297,0.78 -3.402,0 -6.481,-0.28 -9.332,-0.78 -31.61,-7.35 -62.891,-15.55 -93.988,-24.61 -3.364,-0.55 -6.481,-1.64 -9.301,-3.4 -3.391,-1.64 -5.891,-3.64 -7.61,-5.86 -30.511,-28.24 -60.902,-59.61 -91.41,-93.99 -2.851,-3.36 -3.941,-6.48 -3.359,-9.33 0,-2.81 1.637,-4.49 5,-5.08 1.758,-0.51 3.476,-1.13 5.117,-1.64 2.852,-0.63 6.211,-0.35 10.191,0.78 3.95,1.13 7.309,3.13 10.122,5.94 28.199,24.29 55.859,47.15 82.968,68.59 5.121,-65.47 12.11,-144.18 21.168,-236.17 0.551,-4.53 3.133,-7.93 7.621,-10.16 4.493,-2.26 9.571,-2.54 15.192,-0.86 2.308,0.59 4.847,1.45 7.66,2.58 3.91,1.14 7.617,3.36 10.98,6.72 3.399,2.85 5.11,6.25 5.11,10.2 5.078,59.8 9.847,113.94 14.34,162.5 29.961,-40.08 62.379,-84.65 97.339,-133.71 1.719,-3.4 4.848,-5.71 9.34,-6.84 5.078,-1.64 9.571,-1.91 13.559,-0.78 2.851,0.51 5.621,1.13 8.473,1.64 5.628,1.72 10.16,4.49 13.558,8.48 2.219,3.94 2.5,7.93 0.86,11.83 -41.801,84.65 -78.52,156.33 -110.04,215.04 35.5,-4.53 71.95,-10.43 109.18,-17.77 3.942,-1.14 7.852,-1.14 11.828,0 3.953,1.13 6.762,2.5 8.481,4.22 1.09,1.13 1.953,2.26 2.5,3.39 1.722,1.72 1.992,3.95 0.859,6.72 -1.637,2.85 -4.219,4.85 -7.617,5.98 m 36.367,-188.75 c 7.344,-15.82 20.043,-27.97 38.082,-36.45 18.09,-8.98 37.31,-12.42 57.62,-10.11 19.73,3.4 33.59,10.97 41.49,22.81 7.85,11.84 8.16,25.39 0.86,40.66 -7.35,14.65 -19.54,26.21 -36.45,34.69 -16.95,7.93 -35,11.02 -54.18,9.3 -19.18,-2.78 -33.238,-9.85 -42.301,-21.13 -8.48,-11.84 -10.121,-25.16 -5.121,-39.77 M 166.801,660.941 c 5,-15.23 11.828,-27.652 20.269,-37.222 8.481,-9.61 17.231,-14.098 26.289,-13.598 8.442,1.719 14.063,8.75 16.911,21.18 2.23,11.828 1.14,26.519 -3.43,44.058 -5.039,16.911 -12.11,30.153 -21.18,39.731 -8.98,9.601 -17.73,13.281 -26.172,11.051 -7.929,-2.852 -13.039,-10.469 -15.269,-22.891 -2.27,-12.422 -1.41,-26.52 2.582,-42.309 m 10.969,-167.57 c 1.101,-3.992 2.82,-7.07 5.082,-9.34 1.636,-1.133 3.128,-2.5 4.218,-4.222 1.68,-1.719 3.668,-2.848 5.899,-3.399 1.722,-0.582 2.851,0 3.441,1.68 4.488,16.371 10.11,33.601 16.949,51.64 30.391,-84.058 65.391,-159.96 104.922,-227.691 1.68,-2.848 3.989,-5.348 6.758,-7.617 3.359,-2.852 6.211,-4.223 8.481,-4.223 1.089,-0.578 2.218,-0.859 3.359,-0.859 1.711,-0.578 2.851,-0.27 3.43,0.859 1.14,1.141 1.14,2.781 0,5.082 -17.539,38.36 -33.86,80.43 -49.137,126.129 31.598,-48 65.199,-92.57 100.738,-133.789 1.719,-2.769 3.949,-5.031 6.801,-6.75 3.359,-1.723 5.898,-2.5 7.617,-2.5 1.723,-0.59 3.363,-0.859 5.082,-0.859 2.77,-0.59 4.488,0.269 5.07,2.5 0.551,2.258 -0.308,4.84 -2.57,7.609 -51.922,72.82 -99.34,155.199 -142.191,247.188 25.941,-18.047 53.32,-36.09 82.07,-54.137 3.441,-1.723 6.211,-2.262 8.481,-1.723 2.851,0.59 4.57,1.961 5.07,4.223 0.629,1.719 0.859,3.129 0.859,4.219 1.141,2.847 0.629,6.48 -1.719,11.05 -2.218,3.911 -4.718,7.348 -7.57,10.118 -38.359,31.101 -73.64,62.113 -105.82,93.132 -2.27,2.219 -4.5,3.938 -6.762,5.071 -2.226,0.59 -4.219,0.859 -5.937,0.859 -17.461,-2.223 -33.871,-4.801 -49.063,-7.609 -1.719,0 -3.129,-0.864 -4.258,-2.582 -1.09,-1.09 -1.718,-2.77 -1.718,-5.078 -4.493,-32.153 -7.582,-62.34 -9.301,-90.551 -0.539,-2.223 0,-5.071 1.719,-8.43 m 65.199,666.129 c -10.778,-7.34 -19.489,-18.32 -26.25,-33.01 -7.34,-14.69 -10.699,-29.61 -10.199,-44.84 0.589,-15.78 4.5,-26.84 11.839,-32.97 7.34,-6.84 16.68,-7.34 27.969,-1.76 11.25,7.34 20.582,18.67 27.934,33.87 7.34,15.82 11.008,31.87 11.008,48.28 -1.09,15.82 -5.661,26.52 -13.551,32.15 -7.93,5.62 -17.5,5.08 -28.75,-1.72 m -38.09,-152.38 C 187.34,962.039 172.66,917.699 160.82,874.262 c -1.09,-3.352 -1.09,-7.34 0,-11.832 0.629,-4.571 1.719,-7.66 3.399,-9.34 1.09,-1.719 2.23,-3.078 3.359,-4.219 1.723,-2.223 3.711,-2.851 5.942,-1.711 1.71,0.578 3.121,2.262 4.25,5.07 11.839,28.79 25.39,58.168 40.589,88.051 6.84,-107.23 24.879,-213.011 54.219,-317.422 1.684,-4.531 3.902,-8.48 6.762,-11.879 3.359,-3.359 6.48,-4.8 9.332,-4.218 1.129,0 2.226,0.277 3.359,0.859 2.27,0 3.989,1.41 5.078,4.219 1.129,2.269 1.411,5.39 0.86,9.34 -11.289,64.3 -18.629,130.621 -21.989,198.941 23.668,-62.691 51.911,-125.582 84.641,-188.82 2.231,-3.36 4.77,-6.211 7.578,-8.442 3.403,-2.269 6.25,-3.129 8.481,-2.539 2.269,0 4.218,0.27 5.941,0.86 3.399,0.55 5.899,3.121 7.609,7.621 0.551,3.937 0,8.469 -1.71,13.551 -22.54,56.41 -41.719,113.16 -57.54,170.078 -15.781,57.031 -28.75,113.16 -38.949,168.511 25.981,-11.32 53.321,-23.16 82.149,-35.582 2.769,-1.129 5.859,-0.859 9.261,0.86 3.438,2.261 5.938,5.351 7.649,9.332 1.14,2.23 1.922,4.5 2.539,6.719 2.23,4.531 2.82,9.339 1.723,14.46 -0.622,5 -2.582,8.711 -5.973,10.969 -34.969,25.391 -67.109,48.791 -96.488,70.241 -1.719,1.72 -3.942,2.57 -6.801,2.57 -2.262,0 -4.488,-0.62 -6.75,-1.71 -22.539,-12.97 -43.719,-25.43 -63.481,-37.27 -2.269,-1.09 -4.257,-3.09 -5.98,-5.94 -2.219,-2.26 -3.859,-5.04 -5,-8.47 M 802.422,51.4492 c 13.558,0.6289 23.476,2.8516 29.648,6.8399 6.211,3.9023 7.34,8.7109 3.442,14.332 -4.571,6.2187 -13.282,11.0586 -26.25,14.418 -12.422,3.9804 -26.024,5.6211 -40.672,5.082 -13.512,-0.5899 -23.078,-2.8203 -28.789,-6.8008 -5.621,-4.4922 -5.852,-9.5703 -0.852,-15.1992 5.11,-5.6992 13.821,-10.4609 26.25,-14.4102 11.832,-3.4023 24.289,-4.7695 37.223,-4.2617 M 287.809,287.621 c 7.851,-1.641 12.421,0.32 13.562,5.938 0.508,5.632 -2.582,13.832 -9.34,24.531 -7.34,11.332 -15.781,21.449 -25.39,30.512 -9.571,8.437 -18.051,13.828 -25.391,16.058 -7.34,1.129 -10.98,-1.648 -10.98,-8.48 -0.579,-6.211 2.23,-14.649 8.48,-25.391 6.719,-10.117 14.609,-19.418 23.672,-27.891 9.566,-7.929 18.047,-12.968 25.387,-15.277 M 423.238,189.5 c 2.852,-1.719 5.352,-2.621 7.621,-2.621 2.231,-0.508 3.36,-0.231 3.36,0.902 0.582,1.09 0.859,1.719 0.859,1.719 0.582,1.641 -0.277,3.629 -2.5,5.859 -1.719,2.262 -3.988,4.262 -6.84,5.981 -34.957,21.988 -68.238,45.422 -99.84,70.191 -2.269,1.129 -4.488,2.617 -6.757,4.258 -2.301,1.133 -4.219,1.723 -5.942,1.723 -15.23,3.937 -29.879,7.847 -44.058,11.828 l -3.36,0 c -0.551,-0.578 -0.859,-1.399 -0.859,-2.5 -0.543,-6.25 -0.781,-12.18 -0.781,-17.809 9.57,-9.57 19.41,-18.91 29.609,-27.972 1.129,1.722 2.27,3.441 3.359,5.082 5.121,-7.34 10.161,-14.653 15.231,-21.993 39.539,-33.277 81.531,-63.168 126.101,-89.687 -29.89,29.301 -59.769,62.027 -89.652,98.129 24.262,-15.199 49.063,-29.61 74.449,-43.09 m 86.371,64.262 c 12.969,-0.512 21.68,2.847 26.172,10.187 3.989,7.352 2.34,17.192 -5,29.61 -7.929,12.461 -18.902,23.171 -33.082,32.152 -14.07,8.48 -27.898,13.277 -41.449,14.41 -12.461,0 -20.309,-3.941 -23.672,-11.832 -3.398,-7.93 -1.488,-18.051 5.863,-30.469 7.969,-11.84 18.399,-21.761 31.36,-29.648 13.558,-8.481 26.758,-13.281 39.808,-14.41 M 811.762,1754.62 c 11.828,1.64 21.168,3.94 27.968,6.75 6.168,3.36 7.891,6.45 5.04,9.3 -2.782,2.85 -8.989,4.84 -18.598,5.98 -9.063,1.09 -19.492,0.78 -31.332,-0.86 -11.25,-1.72 -20.309,-4.26 -27.07,-7.62 -6.211,-3.44 -8.79,-6.56 -7.649,-9.33 2.301,-2.86 8.199,-4.81 17.77,-5.94 10.199,-0.55 21.449,0 33.871,1.72 M 615.43,1717.39 c 2.769,0 5.621,0.51 8.441,1.64 1.68,0.59 3.117,0.86 4.25,0.86 2.777,1.13 5,2.27 6.719,3.36 2.269,0.62 3.68,1.48 4.262,2.58 7.347,14.1 14.687,26.79 22.027,38.12 12.422,-6.25 25.902,-13.55 40.59,-22.03 0.582,-0.58 1.992,-0.86 4.222,-0.86 2.848,0 5.387,0.28 7.61,0.86 1.719,0.51 3.437,1.13 5.078,1.64 3.402,0.59 5.98,1.45 7.621,2.58 2.301,1.13 2.852,1.99 1.719,2.54 -9.571,11.29 -18.91,21.13 -27.891,29.61 -27.738,-6.21 -54.769,-13.56 -81.289,-22.03 -2.23,-10.71 -4.219,-23.09 -5.937,-37.23 -0.551,-1.13 0.238,-1.64 2.578,-1.64 M 185.352,1436.34 c 1.128,0 2.578,0.85 4.257,2.5 2.231,1.71 3.942,3.71 5.082,5.93 l 2.5,2.54 c 1.719,2.81 2.848,5.08 3.43,6.8 0.551,1.64 0.551,2.5 0,2.5 l -11.012,0 c -6.757,-8.44 -13.238,-16.92 -19.449,-25.39 5.07,1.72 10.11,3.4 15.192,5.12 m 187.109,176.01 c 1.129,0 3.09,0.86 5.937,2.58 1.133,0.55 2.262,1.13 3.364,1.68 2.258,1.09 4.258,2.58 5.898,4.22 2.301,1.72 3.711,3.12 4.25,4.22 10.16,14.18 20,27.38 29.61,39.84 -12.379,-7.89 -24.532,-15.82 -36.36,-23.71 -5.121,-8.44 -9.851,-17.5 -14.422,-27.11 -0.539,-1.09 0,-1.72 1.723,-1.72 m 73.668,40.7 c 0,-1.13 0.781,-1.48 2.5,-0.89 1.723,0.62 3.641,1.13 5.941,1.75 1.68,1.1 3.129,1.92 4.258,2.5 3.363,1.14 6.133,2.5 8.442,4.22 2.261,2.27 3.39,3.63 3.39,4.26 l 0,28.75 c -11.832,-6.21 -23.75,-12.97 -35.582,-20.31 3.363,-6.21 7.07,-12.97 11.051,-20.28 m -132.93,-83 c 9.571,6.21 18.051,12.69 25.391,19.49 7.351,7.34 12.109,13.55 14.422,18.59 1.636,4.57 -0.313,6.21 -5.942,5.08 -19.8,-15.78 -39.218,-32.11 -58.398,-49.06 0,-6.21 8.207,-4.22 24.527,5.9 m 559.531,199.76 c 0.551,-1.13 2.27,-1.99 5.079,-2.5 l 13.519,0 c 2.301,0.51 4.223,0.86 5.942,0.86 1.128,1.13 1.71,1.92 1.71,2.5 -1.128,10.2 -2.3,19.77 -3.429,28.79 -14.071,0 -28.52,-0.27 -43.129,-0.86 6.168,-8.48 12.969,-18.05 20.308,-28.79 m 236.18,-5.08 c 1.09,-1.13 3.08,-1.91 5.93,-2.5 2.78,-1.13 5.36,-1.99 7.62,-2.54 l 3.36,0 c 2.27,-0.58 3.98,-0.58 5.08,0 0.55,0 0.55,0.28 0,0.82 -1.72,3.44 -3.95,6.22 -6.8,8.44 -9.57,2.85 -19.45,5.35 -29.61,7.7 4.53,-3.99 9.3,-7.97 14.42,-11.92 M 66.8789,1226.41 c 0.582,-1.13 1.7109,-0.86 3.3516,0.82 0,0.59 0.5898,1.1 1.7187,1.72 0.5899,1.72 1.7227,3.64 3.3594,5.94 1.1406,2.23 1.9922,4.49 2.582,6.76 11.25,37.22 23.9494,72.54 38.0894,105.78 -14.14,-24.81 -27.1089,-50.2 -38.9488,-76.17 -3.3593,-12.97 -6.8007,-26.25 -10.1523,-39.81 -0.5508,-2.77 -0.5508,-4.49 0,-5.04 M 0.859375,901.34 c 0,-2.82 0.269535,-5.399 0.859375,-7.621 1.13281,-1.129 1.91016,-1.41 2.5,-0.86 0.62109,0.582 1.13281,0.86 1.72266,0.86 0.53906,1.133 1.1289,2.582 1.67968,4.222 0.57813,2.848 0.85938,5.348 0.85938,7.61 0.57812,45.16 3.62893,89.73 9.28903,133.789 1.1407,-36.72 4.5313,-74.801 10.1211,-114.289 0.6289,-2.821 1.1289,-4.5 1.7188,-5.082 1.1289,-1.129 1.9922,-1.41 2.539,-0.86 l 1.7227,1.719 c 1.1289,1.133 2.2187,3.363 3.3594,6.762 0.5781,3.351 0.5781,6.789 0,10.148 -5.0821,72.232 -4.2188,139.692 2.5703,202.312 6.1797,-2.86 13.5195,-5.94 21.9609,-9.34 0.5781,-0.51 1.4375,0 2.5781,1.72 1.6797,1.68 2.7696,3.98 3.3907,6.76 0.5898,1.13 1.0976,2.57 1.7187,4.25 1.1016,2.82 1.9219,5.67 2.5,8.44 0,2.85 -0.2695,4.85 -0.8594,5.98 -8.4687,9.57 -16.0507,18.55 -22.8086,27.03 0,1.13 -0.582,1.45 -1.7226,0.86 -0.5781,-0.55 -1.3984,-1.41 -2.5,-2.5 -0.6172,-0.63 -1.1289,-1.49 -1.7578,-2.58 C 19.7695,1113.52 5.94141,1043.29 0.859375,969.891 c -0.589844,-22.539 -0.589844,-45.43 0,-68.551 M 865.941,30.3203 c 27.688,-3.3984 54.719,-5.8984 81.25,-7.6211 2.848,0 5.7,0.2813 8.469,0.8594 2.86,0.5117 5.078,1.1328 6.801,1.6406 0.551,0.5899 1.129,1.1406 1.68,1.7227 2.23,1.1289 2.847,2.2695 1.718,3.3984 -0.629,0.5899 -2.269,1.0899 -5.121,1.7188 -33.238,3.9414 -67.418,9.8398 -102.418,17.7695 -2.269,0.5508 -4.769,0.7812 -7.621,0.7812 -3.359,0.629 -6.211,0.629 -8.429,0 -26.02,-1.6406 -51.059,-2.5 -75.36,-2.5 -2.808,0 -5.351,-0.2695 -7.57,-0.8593 -1.719,0 -3.129,-0.5391 -4.262,-1.6407 -11.289,-6.8281 -21.988,-13.3203 -32.187,-19.5312 12.968,-2.2188 25.98,-4.4883 38.949,-6.7188 6.75,2.2305 13.551,4.5 20.308,6.7188 3.364,-3.3594 6.481,-6.7188 9.301,-10.1172 32.731,-3.9414 65.742,-5.9297 99.063,-5.9297 -7.934,6.2071 -16.133,12.9688 -24.571,20.3086 M 27.8906,800.59 C 17.1914,819.262 7.85156,837.039 0,853.949 0.589844,844.891 1.12891,835.91 1.71875,826.84 c 0.55078,-7.852 1.40234,-15.539 2.5,-22.852 6.76175,-9.019 14.10155,-18.316 22.03125,-27.929 0.5508,-1.129 1.4102,-1.368 2.5,-0.86 0.6289,1.141 1.1289,2.852 1.7188,5.082 l 0,3.399 c 0.5507,2.851 0.5507,5.941 0,9.332 -1.0899,3.359 -1.9493,5.937 -2.5782,7.578 M 565.43,83.6797 c -6.758,6.1289 -15.821,11.832 -27.071,16.9103 -11.289,5.629 -22.269,9.609 -32.968,11.84 -12.461,2.261 -18.672,0.859 -18.672,-4.219 27.109,-14.1407 54.761,-26.5196 82.929,-37.2305 2.852,2.2304 1.442,6.4883 -4.218,12.6992 M 1082.66,1770.67 c -4.54,3.4 -11.61,6.49 -21.18,9.34 -9.6,2.77 -19.45,4.49 -29.64,5.08 -10.12,0.54 -17.46,0 -22,-1.72 -4.53,-1.72 -4.76,-4.22 -0.82,-7.58 4.5,-3.4 11.84,-6.21 21.96,-8.48 10.19,-2.85 20.66,-4.49 31.36,-5.08 22.04,-1.13 28.75,1.72 20.32,8.44 m -123.64,1.72 c 1.14,-0.59 3.128,-1.09 5.98,-1.72 2.23,0 4.488,-0.23 6.719,-0.86 l 5.121,0 c 2.851,0 4.801,0.28 5.93,0.86 1.64,1.13 1.64,1.99 0,2.54 -14.141,9.06 -27.649,17.5 -40.661,25.39 -15.199,0.59 -30.429,0.86 -45.699,0.86 19.762,-7.34 40.66,-16.33 62.61,-27.07 m -104.059,-14.41 c -2.852,-0.59 -5.352,-0.86 -7.621,-0.86 -23.75,-2.78 -47.418,-5.86 -71.09,-9.3 -2.301,-0.55 -4.84,-1.13 -7.66,-1.68 -2.262,-1.13 -3.899,-1.99 -5.039,-2.58 -22.031,-11.83 -44.289,-25.66 -66.91,-41.44 -2.262,-1.14 -3.121,-2.27 -2.539,-3.4 0,-1.1 1.41,-1.96 4.257,-2.5 l 4.219,0 c 2.852,-0.59 5.621,-0.31 8.473,0.78 3.359,0.62 6.219,1.48 8.437,2.58 20.903,10.74 41.492,20.58 61.801,29.65 8.441,-27.11 18.359,-60.98 29.609,-101.61 0.582,-1.71 2.582,-3.08 5.942,-4.21 3.98,-0.59 7.89,-0.59 11.871,0 2.23,0 4.219,0.27 5.937,0.85 3.364,0 6.211,0.79 8.473,2.5 2.231,1.72 3.359,3.4 3.359,5.12 0.59,25.9 1.141,49.06 1.719,69.38 24.813,-16.96 51.332,-37 79.571,-60.08 1.101,-1.09 3.359,-1.95 6.718,-2.58 3.403,-1.09 6.84,-1.37 10.203,-0.86 l 5.899,0 c 3.941,0.63 7.07,1.72 9.289,3.44 1.723,1.68 1.723,3.4 0,5.04 -33.828,38.94 -64.84,70.58 -93.078,94.84 27.109,-2.26 54.488,-5.62 82.109,-10.19 2.77,-0.51 5.891,-0.51 9.328,0 2.274,0 4.223,0.58 5.903,1.72 0,0 0.589,0.27 1.718,0.85 1.129,0.55 1.129,1.41 0,2.5 -1.129,1.14 -3.129,2 -5.98,2.62 -33.828,7.85 -66.559,14.06 -98.199,18.56 -2.231,0.58 -4.489,0.86 -6.719,0.86 m 362.269,-44.03 c 1.72,-1.13 3.67,-2.26 5.93,-3.4 1.72,-1.09 3.36,-1.95 5.08,-2.5 2.27,-1.13 4.53,-1.99 6.76,-2.57 2.27,-0.55 3.98,-0.55 5.08,0 8.47,2.85 16.68,5.07 24.57,6.79 31.05,-27.61 63.2,-61.21 96.48,-100.7 1.72,-2.31 3.95,-4.22 6.8,-5.94 3.36,-2.26 6.21,-3.63 8.48,-4.26 0.5,0 1.36,-0.23 2.5,-0.86 1.71,0 2.85,0.28 3.36,0.86 0.62,0 0.35,0.86 -0.79,2.54 -14.68,22.62 -29.6,43.17 -44.92,61.84 28.79,-22.62 57.62,-47.42 86.41,-74.53 1.64,-1.68 3.36,-3.13 5.08,-4.26 2.22,-1.64 4.22,-2.77 5.9,-3.36 1.09,0 1.95,-0.27 2.57,-0.86 2.23,-0.55 3.36,-0.55 3.36,0 0,1.13 -1.13,2.85 -3.36,5.08 -32.22,34.45 -64.61,65.23 -97.34,92.27 -33.36,19.25 -68.32,36.44 -105.04,51.64 -5.62,-4.5 -11.84,-9.57 -18.59,-15.2 0,-0.59 0.54,-1.44 1.68,-2.58 m -116.8,43.17 c -2.27,0 -4.49,0.27 -6.76,0.86 -19.76,1.71 -40.08,3.12 -60.97,4.25 -2.23,0.59 -4.22,0.59 -5.94,0 -1.64,0 -3.13,-0.27 -4.22,-0.86 -13.52,-6.75 -27.931,-14.37 -43.13,-22.81 -1.711,-1.13 -1.988,-2.34 -0.859,-3.47 1.648,-1.1 3.949,-1.92 6.719,-2.5 1.14,-0.59 2.851,-1.14 5.121,-1.72 2.23,-0.51 5.078,-0.78 8.48,-0.78 2.809,0 5.079,0.27 6.719,0.78 15.27,5.07 29.96,9.92 44.06,14.41 24.26,-25.98 50.51,-58.4 78.67,-97.34 1.13,-2.23 3.71,-3.95 7.7,-5.08 3.9,-1.68 7.57,-2.77 10.97,-3.4 l 4.22,0 c 2.27,0 4.22,0.27 5.94,0.86 1.13,1.13 1.4,2.27 0.82,3.4 -10.12,23.67 -20.31,44.57 -30.43,62.62 29.88,-19.69 60.9,-42.86 93.12,-69.38 1.64,-1.13 3.91,-2.58 6.72,-4.22 2.85,-1.13 5.39,-1.72 7.62,-1.72 1.72,-0.58 3.36,-0.86 5.08,-0.86 2.85,-0.54 4.53,-0.27 5.12,0.86 0.5,1.14 0,2.85 -1.72,5.08 -42.35,41.72 -82.93,76.17 -121.88,103.24 25.39,-7.34 50.2,-15.47 74.45,-24.53 2.31,-0.55 4.57,-1.13 6.8,-1.68 2.27,-0.58 3.63,-0.58 4.26,0 0.51,0.55 0.86,0.82 0.86,0.82 0.51,0.59 0,1.72 -1.72,3.44 -1.72,1.13 -3.63,2.23 -5.98,3.36 -31.01,12.97 -62.03,24.26 -93.08,33.87 -2.27,1.13 -4.53,1.99 -6.76,2.5 M 698.359,59.9297 c 2.813,-0.5508 5.621,-0.8594 8.442,-0.8594 1.719,-0.5508 3.398,-0.7812 5.109,-0.7812 2.781,0 5.078,0.5117 6.719,1.6406 1.141,1.1289 0.859,2.582 -0.859,4.2187 -40.579,35.5821 -83.508,80.7036 -128.59,135.4726 32.73,-12.973 65.98,-24.57 99.84,-34.73 3.992,-1.129 7.621,-1.68 11.058,-1.68 2.774,0.551 5,1.68 6.723,3.398 l 1.719,1.719 c 1.128,1.641 0.82,3.633 -0.86,5.863 -1.719,2.258 -4.219,4.25 -7.582,5.969 -44.648,18.051 -88.629,38.641 -132.066,61.762 -2.852,1.719 -5.981,2.848 -9.34,3.359 -3.363,1.129 -6.481,1.719 -9.332,1.719 -25.391,1.129 -49.93,2.852 -73.602,5.121 -2.847,0 -5.078,-0.281 -6.789,-0.859 -1.679,-0.59 -2.777,-1.723 -3.398,-3.403 -8.442,-18.629 -16.063,-35.82 -22.852,-51.64 -0.551,-1.129 0,-2.848 1.711,-5.078 2.231,-2.27 4.809,-4.493 7.578,-6.762 1.723,-0.578 3.403,-1.438 5.121,-2.578 2.852,-2.223 5.621,-3.36 8.442,-3.36 2.258,-1.132 3.98,-1.132 5.109,0 10.711,7.93 21.68,16.649 33.012,26.25 34.449,-52.5 67.699,-96.48 99.848,-132.0699 1.128,-1.6406 3.429,-3.1211 6.789,-4.2109 3.402,-1.6797 6.492,-2.7813 9.339,-3.3985 l 4.223,0 c 2.258,-0.5898 3.899,-0.5898 5.039,0 1.129,1.1289 1.442,1.9883 0.86,2.5391 -10.711,19.7578 -21.68,42.0272 -33.008,66.9102 32.726,-27.109 64.367,-50.7813 94.84,-71.1719 1.636,-1.0977 3.91,-2.2305 6.757,-3.3594 M 85.5117,520.398 c 0,3.442 0.2695,7.071 0.8594,11.051 6.75,-18.668 13.8279,-36.719 21.1679,-54.179 15.781,-28.829 33.012,-56.719 51.563,-83.829 -6.723,15.789 -13.204,31.918 -19.411,48.25 23.118,-40.589 48.239,-79.261 75.309,-115.98 1.719,-2.27 3.711,-4.223 5.941,-5.902 1.68,-1.719 3.118,-2.809 4.258,-3.36 l 2.5,0 c 1.711,-1.129 2.571,-0.859 2.571,0.781 0,2.348 -0.86,4.571 -2.571,6.84 -42.859,63.75 -80.16,132.852 -111.719,207.379 15.231,-15.82 31.559,-31.597 49.098,-47.418 1.723,-1.722 3.363,-2.5 5.082,-2.5 1.129,0.508 1.641,1.91 1.641,4.219 l 0,2.5 c 0,2.262 -0.512,5.121 -1.641,8.48 -1.719,3.36 -3.711,6.211 -5.941,8.469 -23.668,26.531 -45.117,53.012 -64.3792,79.531 -1.0898,1.141 -2.5,2.27 -4.2187,3.399 -1.1328,1.101 -2.2617,1.723 -3.3516,1.723 -8.4804,-1.133 -16.6797,-1.993 -24.539,-2.543 -0.6211,0 -1.1289,-0.579 -1.711,-1.719 -0.5507,-1.09 -0.8203,-2.5 -0.8203,-4.219 0.5391,-6.75 0.8203,-13.281 0.8203,-19.449 6.211,-14.141 12.6914,-27.973 19.4922,-41.524 M 1397.54,348.602 c 2.81,1.718 5.39,3.949 7.62,6.718 1.13,1.719 2.26,3.121 3.36,4.258 1.71,2.852 2.85,5.934 3.39,9.332 0,2.82 -1.13,4.219 -3.39,4.219 -25.9,7.93 -54.42,16.922 -85.51,27.109 -2.23,0.551 -5,0.551 -8.44,0 -2.77,0 -5.9,-0.859 -9.26,-2.578 -30.51,-14.101 -62.11,-27.648 -94.84,-40.621 -3.99,-1.098 -7.35,-3.09 -10.2,-5.937 -3.36,-2.231 -6.13,-4.762 -8.43,-7.622 -32.15,-37.218 -63.52,-71.679 -93.91,-103.199 -2.85,-2.851 -3.98,-5.351 -3.44,-7.691 0.59,-2.781 2.58,-4.5 5.94,-5 1.72,-0.629 3.36,-1.141 5.08,-1.719 3.4,-0.633 7.03,-0.281 10.97,0.859 3.99,1.09 7.35,2.5 10.2,4.211 27.03,21.45 54.18,44.297 81.29,68.598 -1.72,-62.109 -4.85,-114.609 -9.34,-157.461 -0.58,-1.719 0.55,-2.848 3.36,-3.398 2.85,0 5.98,0.55 9.34,1.679 1.64,0.582 3.36,1.09 5.08,1.719 2.77,1.094 5.39,2.5 7.61,4.223 2.27,1.64 3.64,3.359 4.22,5.07 12.46,28.207 24.57,59.539 36.41,93.91 12.42,-24.261 23.4,-45.941 32.97,-65.121 0.62,-1.129 1.99,-1.719 4.26,-1.719 1.71,0.59 3.94,1.45 6.79,2.579 1.64,0.511 3.36,1.371 5.08,2.5 3.4,1.14 6.48,3.128 9.26,5.98 2.34,2.23 3.44,4.219 3.44,5.859 -1.1,41.801 -5.36,91.993 -12.7,150.7 26.52,-0.579 51.6,-0.86 75.35,-0.86 2.23,0 5.08,1.141 8.44,3.403 m 214.14,67.699 c -7.85,-6.723 -15.2,-15.512 -22.03,-26.25 -6.72,-10.121 -11.56,-19.692 -14.34,-28.75 -2.22,-7.891 -1.44,-12.11 2.5,-12.699 3.4,-1.133 9.07,1.718 16.96,8.437 7.34,6.762 14.14,14.961 20.31,24.57 6.21,9.571 10.78,18.629 13.55,27.11 3.95,17.461 -1.68,20.043 -16.95,7.582 m 140.55,238.75 c -6.21,10.699 -12.97,22.301 -20.32,34.64 -1.13,0.59 -1.99,0.86 -2.57,0.86 -1.14,0 -1.92,-0.5 -2.5,-1.641 -9.61,-10.191 -19.81,-20.621 -30.51,-31.359 -1.13,-1.102 -2.23,-2.821 -3.36,-5.082 -1.72,-2.27 -2.85,-4.489 -3.36,-6.758 -14.18,-37.231 -30.23,-73.91 -48.28,-110.039 -1.68,-3.363 -2.78,-6.481 -3.4,-9.332 0,-2.82 0.27,-4.5 0.86,-5.078 1.13,-0.512 1.68,-1.141 1.68,-1.641 1.09,-0.59 2.58,-0.359 4.22,0.777 1.72,1.133 3.12,3.122 4.22,5.942 14.68,24.801 27.97,49.68 39.84,74.488 -10.2,-65.43 -24.3,-124.648 -42.34,-177.777 8.47,13.051 16.68,26.25 24.53,39.808 9.06,24.301 17.18,49.922 24.53,77.071 -0.51,-12.461 -1.37,-24.571 -2.5,-36.45 7.34,14.692 14.41,29.61 21.17,44.891 4.49,28.789 7.85,59.25 10.16,91.399 7.34,-2.77 14.1,-5.899 20.31,-9.329 l 0.86,0 c 2.26,7.93 4.49,15.821 6.76,23.75 l 0,0.86 M 77.8906,594.07 c 4.4883,0.59 7.0313,5.352 7.6211,14.41 0,8.989 -1.7226,20.321 -5.082,33.872 -3.9805,12.968 -8.75,23.668 -14.4102,32.148 -5.039,7.852 -9.6093,11.289 -13.5195,10.16 -3.9492,-1.719 -6.2109,-7.07 -6.8008,-16.14 0,-8.981 1.7227,-20.04 5.082,-32.969 3.3985,-12.461 7.8907,-22.571 13.5586,-30.5 5.1094,-7.86 9.6094,-11.571 13.5508,-10.981 m 82.0704,711.05 c 8.48,7.35 16.09,16.33 22.891,27.11 6.757,11.25 11.558,21.68 14.339,31.29 1.719,9.07 0.618,14.42 -3.363,16.06 -3.988,1.13 -10.117,-1.37 -18.598,-7.62 -7.339,-7.34 -14.41,-16.05 -21.128,-26.25 -6.25,-10.7 -10.473,-20.82 -12.692,-30.39 -2.351,-9.61 -1.719,-15.31 1.641,-16.95 3.937,-2.31 9.57,0 16.91,6.75 M 77.0312,1154.46 c -0.582,-2.85 -0.2304,-4.8 0.8594,-5.94 0,-0.58 0.2696,-1.13 0.8203,-1.72 0.5899,-1.13 1.7188,-1.13 3.4375,0 1.0899,1.14 2.5,3.09 4.2227,5.94 11.8281,25.39 25.0779,50.55 39.7189,75.35 -14.059,-72.22 -21.399,-150.93 -21.988,-236.168 0,-3.363 0.589,-6.211 1.718,-8.481 1.719,-2.222 3.36,-2.5 5.078,-0.851 1.133,0.582 1.993,1.129 2.5,1.711 1.133,1.14 2.582,3.129 4.262,5.898 0.578,2.852 1.129,5.942 1.719,9.34 4.492,54.721 11.832,107.771 22.031,159.181 3.86,-40.71 10.11,-84.14 18.551,-130.43 1.129,-2.78 2.269,-4.77 3.398,-5.9 1.719,-1.09 3.442,-1.09 5.082,0 1.129,0.55 2.258,1.41 3.36,2.54 2.847,1.13 4.84,3.94 5.969,8.44 1.718,4.53 2.23,8.75 1.718,12.69 -6.828,84.65 -7.066,160.86 -0.859,228.56 14.07,-1.1 29.031,-2.5 44.851,-4.22 1.719,0 3.668,0.86 5.93,2.58 2.781,2.26 5.078,5.03 6.762,8.47 0.59,1.14 1.449,2.5 2.578,4.22 1.641,3.36 2.77,6.49 3.359,9.26 0,3.44 -0.859,5.35 -2.578,5.94 -17.461,7.89 -33.511,15.23 -48.203,22.03 -1.129,0.54 -2.578,0.54 -4.258,0 -1.09,-0.59 -2.808,-1.72 -5.082,-3.36 -15.816,-13.05 -30.738,-25.98 -44.84,-38.95 -1.128,-1.13 -2.578,-2.85 -4.218,-5.11 -1.719,-2.23 -3.129,-4.5 -4.219,-6.72 -18.672,-35 -35.0001,-70.04 -49.1407,-105.04 -1.6797,-3.36 -2.5391,-6.49 -2.5391,-9.26 m 33.0078,116.8 c 0.582,-0.59 1.723,0 3.359,1.72 0.622,0.54 1.481,1.4 2.582,2.5 1.68,1.71 3.399,3.98 5.04,6.75 1.71,3.44 2.851,6.21 3.429,8.48 6.762,40.66 15.242,77.62 25.391,110.9 -11.871,-17.46 -22.891,-35.24 -33.039,-53.32 -3.403,-22.62 -5.903,-47.42 -7.621,-74.53 -0.508,-1.64 -0.27,-2.5 0.859,-2.5 M 1481.33,233.441 c -15.2,-0.5 -31.6,-0.5 -49.06,0 -1.14,0 -2.86,-0.5 -5.08,-1.64 -1.72,-0.582 -3.71,-1.442 -5.98,-2.571 -20.86,-12.429 -42.58,-24.539 -65.12,-36.371 -2.3,-1.129 -4.57,-2.578 -6.79,-4.218 -2.82,-1.762 -5.12,-3.403 -6.76,-5.121 -25.98,-24.801 -51.92,-47.649 -77.89,-68.551 -2.27,-1.68 -3.4,-3.129 -3.4,-4.258 0,-1.641 0.86,-2.231 2.54,-1.641 l 3.44,0 c 2.22,0 4.49,0.508 6.72,1.641 2.85,0.59 5.35,1.719 7.61,3.398 21.41,15.27 42.93,31.332 64.34,48.243 -5.08,-13.551 -9.85,-25.981 -14.42,-37.231 28.83,15.82 56.49,33.289 83.01,52.469 1.13,7.922 2.5,16.398 4.22,25.39 15.24,3.43 29.38,7.071 42.34,11.051 7.35,5.629 14.65,11.559 22,17.77 0,1.14 -0.59,1.64 -1.72,1.64 M 208.238,1454.97 l 0.864,0 c 1.128,0 2.5,0.54 4.257,1.64 1.641,1.72 3.629,3.71 5.86,5.98 16.953,19.68 34.453,38.94 52.5,57.53 -18.629,-41.75 -35.821,-90.86 -51.641,-147.3 -1.129,-2.81 -0.859,-4.49 0.863,-5.08 1.129,-0.51 3.118,0 5.899,1.72 0.582,1.13 1.441,1.99 2.57,2.5 2.231,1.72 4.219,3.71 5.899,5.98 2.312,2.77 3.671,5.35 4.222,7.57 15.27,38.36 31.09,73.68 47.418,105.83 1.141,-20.9 3.36,-44.03 6.801,-69.42 0,-1.13 0.781,-1.95 2.5,-2.54 1.719,0.59 3.672,1.41 5.98,2.54 1.641,1.09 3.079,1.95 4.219,2.58 3.391,2.23 6.172,5.08 8.473,8.44 2.226,2.77 3.629,5.35 4.219,7.61 2.769,47.43 7.89,88.01 15.238,121.88 15.781,3.98 32.461,7.93 49.922,11.83 2.219,0 4.488,0.86 6.789,2.58 2.781,1.68 5.039,3.4 6.762,5.12 l 3.359,3.36 c 1.719,1.64 2.848,3.36 3.398,5.08 0,1.13 -0.82,1.68 -2.539,1.68 -19.179,-0.55 -37.23,-1.68 -54.14,-3.4 -0.629,-0.59 -1.989,-1.13 -4.258,-1.72 -1.094,-0.51 -2.813,-1.37 -5.082,-2.5 -18.039,-11.33 -35.578,-22.89 -52.5,-34.73 -1.68,-1.13 -3.391,-2.5 -5.039,-4.22 -2.301,-1.67 -3.942,-3.39 -5.071,-5.11 -22.621,-24.26 -44.339,-49.65 -65.242,-76.17 -1.636,-2.23 -2.769,-4.22 -3.359,-5.9 -0.578,-2.23 -0.27,-3.36 0.859,-3.36 M 1742.03,728.641 c 0.59,-1.129 1.45,-1.129 2.58,0 0.55,0.589 1.13,1.129 1.64,1.718 1.13,0.551 1.99,2.262 2.58,5.121 0.55,2.219 1.13,4.489 1.68,6.711 4.57,45.2 6.79,90.629 6.79,136.329 6.22,-38.981 10.47,-76.79 12.7,-113.43 0,-1.719 0.27,-3.09 0.86,-4.219 0.55,-0.633 1.13,-0.359 1.68,0.777 0.58,0 1.09,0.582 1.72,1.723 0.51,0.578 1.09,2.5 1.64,5.93 1.13,2.82 1.44,5.629 0.86,8.48 0,66.02 -6.49,134.571 -19.46,205.66 8.48,-10.703 15.82,-20.89 22.04,-30.461 1.13,-1.14 1.91,-1.14 2.5,0 0,0.579 0.27,1.989 0.86,4.211 l 0,3.36 c 0.54,2.347 0.54,4.847 0,7.699 -0.59,3.359 -1.14,5.621 -1.72,6.762 -8.99,19.179 -19.18,39.178 -30.47,60.078 -1.13,1.13 -1.92,1.99 -2.54,2.53 -1.09,1.14 -1.95,1.45 -2.5,0.86 -6.21,-3.39 -13.28,-7.07 -21.17,-10.97 -0.59,0 -1.1,-0.86 -1.72,-2.58 -0.59,-1.68 -1.1,-3.63 -1.72,-5.9 -2.77,-32.19 -7.58,-65.78 -14.34,-100.78 l 0,-10.121 c 0.51,-3.359 1.37,-6.207 2.5,-8.469 0.59,-0.59 1.14,-1.449 1.72,-2.582 1.14,-1.637 2.27,-2.226 3.4,-1.637 1.72,0.5 2.81,1.989 3.36,4.219 6.21,22.57 11.56,44.57 16.05,66.012 9.61,-78.981 12.19,-155.473 7.7,-229.41 0,-3.364 0.27,-5.903 0.78,-7.621 M 1232.5,669.379 c 0.51,-5.617 2.77,-9.289 6.72,-10.969 2.26,-1.101 4.26,-2.582 5.98,-4.219 3.35,-1.722 7.34,-2 11.83,-0.863 4.49,1.723 8.2,4.492 10.98,8.473 28.24,37.23 54.49,74.769 78.75,112.539 5.12,-59.25 7.34,-115.391 6.76,-168.43 0,-53.051 -1.64,-102.699 -5.08,-148.988 0,-3.91 1.44,-6.762 4.22,-8.481 2.85,-1.132 6.21,-0.5 10.19,1.719 1.72,0.59 3.36,1.41 5.08,2.539 3.36,1.102 6.21,3.442 8.48,6.801 2.77,3.359 4.49,6.48 5.07,9.34 12.97,57.5 23.68,119.289 32.15,185.351 15.78,-52.5 28.75,-101.062 38.95,-145.632 0.51,-2.219 1.99,-3.629 4.22,-4.219 2.26,-0.539 4.76,0 7.61,1.719 1.72,0.511 3.13,1.371 4.22,2.5 3.99,1.722 7.07,4.851 9.34,9.339 2.26,4.493 3.12,8.442 2.5,11.832 -2.77,86.372 -14.92,182.86 -36.37,289.532 25.94,-11.832 50.55,-23.16 73.63,-33.864 2.31,-1.136 4.54,-0.859 6.8,0.864 2.77,1.636 4.77,4.488 5.9,8.468 1.09,1.641 1.72,3.36 1.72,5 1.72,3.989 2.23,8.211 1.72,12.7 -0.63,4.57 -1.99,7.929 -4.26,10.191 -27.7,24.809 -58.13,51.367 -91.45,79.57 -2.77,2.231 -5.62,3.68 -8.47,4.219 -2.78,0 -5.63,-0.269 -8.48,-0.859 -25.9,-10.11 -53.87,-20.582 -83.79,-31.289 -3.36,-1.133 -6.44,-3.082 -9.3,-5.934 -3.39,-3.398 -5.62,-7.027 -6.75,-10.976 -25.39,-57.622 -54.14,-115.161 -86.37,-172.692 -2.23,-5.082 -3.09,-10.16 -2.5,-15.281 m 75.31,286.961 c 5.63,-21.41 15.2,-37.5 28.75,-48.211 13.6,-10.699 28.24,-13.551 44.06,-8.469 14.11,5.621 24.54,16.68 31.29,33 6.21,16.918 7.07,35.59 2.58,55.899 -5.7,19.691 -14.96,34.961 -27.97,45.671 -13.51,11.32 -27.65,15.54 -42.34,12.69 -15.78,-4.49 -27.03,-15.19 -33.87,-32.11 -6.72,-16.951 -7.58,-36.439 -2.5,-58.47 m 229.42,456.32 c -7.35,1.1 -11.06,-1.48 -11.06,-7.69 -0.51,-6.72 2.31,-16.06 8.48,-27.89 6.8,-12.46 14.41,-22.89 22.89,-31.37 9.06,-8.98 16.91,-14.34 23.67,-16.05 6.21,-0.55 9.57,2.85 10.16,10.19 0,6.72 -3.09,16.06 -9.3,27.89 -6.21,11.33 -13.55,21.17 -22.03,29.65 -8.48,8.44 -16.06,13.55 -22.81,15.27 M 1193.55,405.32 c 1.72,-13.558 9.07,-22.269 22,-26.25 12.46,-4.492 27.07,-3.359 43.98,3.399 16.41,7.851 29.96,18.633 40.67,32.109 10.74,14.184 15.82,28.512 15.23,43.203 -1.13,14.688 -7.62,24.258 -19.45,28.75 -11.84,5.117 -26.53,4.258 -44.07,-2.5 -18.04,-8.48 -32.73,-20.043 -43.94,-34.73 -11.33,-14.68 -16.13,-29.332 -14.42,-43.981 m 276.8,1154.61 c -0.58,0 -1.09,-0.27 -1.72,-0.86 0,-11.33 -0.58,-23.67 -1.72,-37.23 0,-1.13 0.86,-2.85 2.58,-5.11 1.68,-2.82 3.63,-5.08 5.9,-6.72 1.72,-1.14 3.13,-2.35 4.22,-3.44 2.34,-1.68 4.26,-3.13 5.98,-4.26 2.22,-0.51 3.36,-0.27 3.36,0.86 3.98,6.84 7.61,13.56 11.05,20.31 36.09,-50.19 69.96,-107.46 101.56,-171.79 1.14,-2.85 2.78,-5.63 5.04,-8.48 2.31,-2.27 4.22,-3.63 5.94,-4.22 l 1.72,0 c 1.13,-0.62 1.68,0 1.68,1.72 0.58,1.09 0.23,2.77 -0.86,5 -15.24,36.72 -31.02,70.82 -47.38,102.46 25.93,-34.41 50.19,-70.82 72.77,-109.18 1.09,-2.26 2.58,-4.26 4.22,-5.98 1.72,-1.64 2.85,-2.5 3.43,-2.5 0.55,0 1.14,-0.27 1.65,-0.85 1.13,0 1.71,0.85 1.71,2.57 0,1.64 -0.86,3.91 -2.57,6.76 -33.25,62.07 -69.96,118.75 -110.04,170.16 16.95,-14.18 33.08,-28.24 48.28,-42.35 1.72,-1.13 3.12,-1.99 4.22,-2.57 -10.16,12.42 -20.55,24.61 -31.33,36.44 -13.48,12.97 -27.66,25.94 -42.31,38.95 -1.68,1.13 -3.39,2.26 -5.03,3.36 -1.72,1.68 -3.13,2.53 -4.22,2.53 -11.33,5.08 -22.89,9.93 -34.73,14.42 -1.72,0.51 -2.85,0.51 -3.4,0 m 117.66,-457.11 c -7.93,-2.27 -13.28,-9.57 -16.06,-22.03 -2.34,-12.42 -1.72,-27.11 1.64,-44.03 4.5,-16.95 10.71,-29.88 18.64,-38.901 7.89,-9.058 15.82,-12.148 23.71,-9.3 7.3,3.363 12.42,11.211 15.27,23.671 2.77,11.84 2.23,25.67 -1.72,41.45 -3.98,15.82 -9.88,28.24 -17.81,37.3 -7.85,8.99 -15.78,12.97 -23.67,11.84 m 18.59,-496.91 c 1.72,-1.14 3.71,-0.859 5.94,0.852 1.13,0.59 1.99,1.41 2.54,2.5 2.3,1.136 3.94,3.129 5.08,5.976 1.72,2.852 2.85,5.942 3.36,9.34 9.06,53.012 15.54,107.774 19.53,164.184 8.98,-46.801 15.47,-90.864 19.41,-132.071 0,-2.781 0.63,-4.5 1.72,-5.082 1.13,-0.55 2.27,-0.269 3.4,0.86 1.13,1.133 2.22,1.992 3.36,2.582 1.13,1.64 2.58,4.211 4.22,7.609 1.72,3.949 2.26,7.578 1.72,10.981 0.54,77.3 -7.08,159.687 -22.86,247.187 14.14,-11.289 27.39,-22.308 39.81,-33.008 1.64,-1.129 2.77,-1.129 3.36,0 1.72,1.68 2.85,3.91 3.4,6.758 0,1.133 0.23,2.5 0.86,4.223 l 0,10.187 c -0.63,3.364 -1.41,5.903 -2.54,7.621 -15.79,22.539 -33.05,45.942 -51.64,70.231 -1.72,1.101 -3.36,2.23 -5.08,3.359 -1.14,0.59 -2.54,0.59 -4.26,0 -13.55,-6.168 -28.24,-12.379 -44.02,-18.59 -1.68,-0.589 -3.13,-1.988 -4.26,-4.218 -1.64,-2.27 -2.77,-4.84 -3.36,-7.621 -11.25,-43.43 -24.81,-88.079 -40.59,-133.79 -1.72,-3.941 -2.26,-8.199 -1.72,-12.691 0.59,-4.488 1.96,-7.848 4.22,-10.117 1.14,-1.133 2.27,-2.301 3.36,-3.442 2.35,-1.64 4.57,-2.218 6.84,-1.64 2.22,1.14 4.22,3.359 5.86,6.762 14.69,29.878 27.97,59.218 39.84,88.007 9.57,-98.75 9.85,-191.597 0.86,-278.48 0,-3.981 0.51,-6.758 1.64,-8.469 m 75.39,623.04 c 1.64,-3.4 3.09,-6.25 4.22,-8.47 1.13,-0.59 1.91,-1.72 2.54,-3.4 l 3.36,-3.36 c 1.13,0 1.72,0.54 1.72,1.64 1.64,14.69 2.77,28.24 3.36,40.7 25.39,-65.47 44.84,-133.79 58.4,-204.88 0.58,-3.4 1.44,-6.21 2.57,-8.48 1.14,-1.72 1.92,-2.5 2.5,-2.5 0.63,0.51 1.14,0.78 1.72,0.78 0,0.59 0.28,1.72 0.82,3.44 l 0,5.9 c -6.75,41.8 -14.96,82.38 -24.53,121.87 12.97,-34.37 24.26,-68.24 33.87,-101.56 -15.82,81.25 -41.49,157.7 -77.07,229.38 -5.63,1.72 -11.84,3.71 -18.59,5.97 -0.59,0 -1.1,-0.27 -1.72,-0.86 l 0,-3.39 c 2.26,-20.28 3.98,-42.04 5.11,-65.2 0,-2.23 0.59,-4.77 1.72,-7.58 M 1715,767.59 c -5.12,-5.078 -9.61,-13.789 -13.55,-26.25 -3.4,-11.84 -5.4,-24.262 -5.98,-37.231 -0.51,-12.418 0.86,-21.168 4.26,-26.25 3.43,-4.488 7.93,-4.218 13.55,0.86 5.08,5.621 9.3,14.101 12.7,25.39 3.94,11.832 5.93,23.672 5.93,35.582 0.55,12.387 -0.86,21.18 -4.21,26.18 -3.4,5.699 -7.62,6.25 -12.7,1.719 m -110.04,552.73 c -1.13,1.13 -2.26,1.72 -3.4,1.72 -11.91,1.72 -24.26,3.4 -37.3,5.12 -1.64,0 -2.78,-0.28 -3.36,-0.86 -1.13,-1.14 -1.64,-2.54 -1.64,-4.26 -1.72,-25.98 -4.85,-53.91 -9.34,-83.79 0,-2.23 0.55,-5.35 1.64,-9.3 1.72,-3.98 3.99,-7.11 6.84,-9.33 1.09,-1.68 2.22,-3.4 3.36,-5.12 2.26,-1.64 4.49,-2.77 6.76,-3.36 1.71,0 2.85,0.86 3.43,2.58 6.72,18.59 12.35,36.37 16.92,53.32 31.56,-81.84 55.27,-167.93 71.09,-258.2 0.55,-4.5 1.64,-7.86 3.36,-10.16 2.27,-2.27 3.98,-3.129 5.12,-2.539 1.13,0 1.99,0.269 2.5,0.859 1.13,0.551 1.99,1.988 2.58,4.26 1.13,2.77 1.4,5.62 0.78,8.43 -5.59,53.05 -14.07,104.38 -25.39,154.03 20.89,-47.35 38.43,-94.77 52.54,-142.19 1.09,-2.81 2.22,-4.8 3.35,-5.94 1.14,-1.64 2.23,-2.26 3.36,-1.64 0.59,0.51 1.14,0.86 1.72,0.86 1.14,0.51 2,2.5 2.54,5.86 0,2.85 -0.27,6.25 -0.82,10.2 -19.76,80.7 -47.15,159.1 -82.11,235.31 15.78,-15.82 30.74,-31.29 44.81,-46.56 1.72,-1.14 2.85,-1.68 3.43,-1.68 1.14,0.54 1.68,1.68 1.68,3.4 0,1.13 -0.27,2.22 -0.86,3.35 0,1.72 -0.54,4.26 -1.67,7.62 -1.1,2.85 -2.58,5.35 -4.22,7.62 -18.64,25.39 -39.54,50.78 -62.62,76.17 -1.72,1.72 -3.44,3.09 -5.08,4.22 m 80.39,-13.48 c 2.77,-0.58 4.26,1.37 4.26,5.9 -10.74,20.86 -22.03,40.9 -33.87,60.08 -2.26,1.72 -3.98,2.85 -5.12,3.4 -3.94,1.72 -5.62,-0.28 -5.07,-5.9 1.13,-5.7 4.22,-13.28 9.33,-22.89 5.08,-10.16 10.43,-19.18 16.06,-27.11 6.21,-7.34 11.05,-11.84 14.41,-13.48 m 99.88,-331.828 c -0.54,-2.274 -0.54,-4.852 0,-7.621 0,-0.59 0.24,-1.45 0.86,-2.582 -0.62,4.57 -0.86,9.062 -0.86,13.562 l 0,-3.359 m -75.35,104.058 c -3.36,13.55 -4.8,24.88 -4.22,33.87 0.59,9.61 2.86,15 6.76,16.13 3.95,0.55 8.2,-3.09 12.7,-11.06 5.08,-7.3 9.06,-17.18 11.87,-29.6 2.78,-12.43 4.26,-23.4 4.26,-33.01 -0.63,-9.06 -2.85,-14.69 -6.84,-16.92 -3.94,-1.13 -8.2,2 -12.69,9.3 -4.49,7.89 -8.44,18.32 -11.84,31.29"
         inkscape:connector-curvature="0"
         id="path14"
         style="fill:#2b5ea3;fill-opacity:1;fill-rule:evenodd;stroke:none" /><path
         d="m 498.551,1664.03 c -24.801,-18.59 -49.641,-39.49 -74.449,-62.66 -2.262,-1.71 -3.711,-3.36 -4.223,-5.07 0,-1.64 0.859,-2.5 2.5,-2.5 l 2.582,0 c 1.641,0 3.91,0.86 6.758,2.5 2.812,1.13 5.351,2.57 7.582,4.21 21.437,16.96 43.199,33.01 65.23,48.29 -9.609,-33.87 -18.402,-75.32 -26.25,-124.46 -0.621,-2.26 0.239,-3.63 2.5,-4.22 2.848,-0.54 6.207,0 10.199,1.72 1.719,0.51 3.36,1.37 5.071,2.5 2.777,1.14 5.629,2.85 8.48,5.08 2.231,2.27 3.629,4.26 4.219,5.98 11.84,33.24 23.949,63.16 36.371,89.65 12.418,-17.46 26.25,-37.23 41.481,-59.26 1.097,-1.1 3.089,-1.92 5.937,-2.5 2.262,0 5.082,0.58 8.481,1.72 2.218,0.54 4.492,1.13 6.71,1.64 3.989,1.76 7.348,3.71 10.2,5.97 2.269,2.78 3.121,5.36 2.5,7.62 -13.481,39.45 -24.77,72.81 -33.828,99.85 23.707,2.3 48.007,3.98 72.808,5.07 2.82,0 5.668,0.63 8.442,1.72 3.398,1.13 5.976,2.27 7.617,3.4 1.133,1.09 1.992,1.72 2.582,1.72 2.258,1.64 3.121,3.09 2.5,4.22 -0.512,1.13 -1.961,1.64 -4.223,1.64 -29.379,2.26 -57.269,3.12 -83.789,2.58 -1.719,0 -3.629,-0.32 -5.937,-0.86 -2.262,-0.59 -4.532,-1.45 -6.762,-2.58 -23.16,-7.85 -45.699,-16.33 -67.731,-25.39 -2.23,-1.13 -4.808,-2.23 -7.578,-3.36 -1.722,-1.13 -3.711,-2.5 -5.98,-4.22 m 47.429,22.85 c 11.829,4.49 21.75,9.34 29.641,14.38 7.859,5.66 11.84,10.15 11.84,13.55 -0.551,3.36 -4.531,4.81 -11.84,4.22 -7.34,-0.51 -16.672,-2.77 -27.922,-6.76 -10.789,-3.94 -20.039,-8.71 -27.969,-14.41 -7.851,-5.08 -12.109,-9.57 -12.699,-13.56 -0.551,-3.36 2.848,-4.76 10.199,-4.21 7.34,0 16.911,2.3 28.75,6.79 m 772.03,-80.39 c 9.57,-1.72 15.19,-0.86 16.91,2.5 2.27,3.99 0,9.57 -6.8,16.92 -6.75,6.83 -15.46,13.32 -26.24,19.53 -10.12,5.62 -20.32,9.57 -30.43,11.83 -20.4,2.78 -24.89,-2.85 -13.56,-16.95 7.34,-7.31 16.64,-14.14 27.89,-20.27 11.33,-6.84 22.03,-11.33 32.23,-13.56 m -59.26,-49.96 c 1.64,-2.81 4.22,-5.08 7.62,-6.8 1.64,-1.13 3.63,-2.22 5.86,-3.36 2.85,-1.71 5.7,-2.85 8.47,-3.39 3.44,-0.59 5.71,-0.24 6.8,0.86 10.74,9.6 21.17,18.59 31.29,27.07 39.53,-55.28 77.3,-120.79 113.48,-196.37 1.13,-3.44 3.63,-6.53 7.61,-9.3 3.36,-2.85 6.21,-4.26 8.48,-4.26 1.64,-0.58 3.09,-0.86 4.22,-0.86 1.64,0 3.12,0.86 4.22,2.54 0.54,1.72 0.27,3.95 -0.86,6.8 -15.2,43.98 -31.6,84.38 -49.06,121.02 34.37,-38.95 66.87,-80.94 97.34,-126.1 1.13,-2.85 3.12,-5.12 5.9,-6.76 2.22,-1.71 4.22,-2.85 5.93,-3.43 l 3.4,0 c 2.23,-0.55 3.36,0.58 3.36,3.43 0,2.27 -0.86,5.04 -2.5,8.48 -42.93,72.74 -88.36,137.07 -136.33,192.97 24.3,-14.69 47.7,-29.38 70.24,-44.06 2.34,-1.64 4.26,-2.78 5.98,-3.36 1.71,0 2.5,0.58 2.5,1.72 l 0,1.64 c 0,1.13 -0.79,2.85 -2.5,5.11 -1.72,2.82 -3.99,5.08 -6.76,6.8 -29.38,22.54 -60.12,44.26 -92.31,65.16 l -6.75,3.36 c -2.27,1.13 -4.5,1.99 -6.76,2.57 -18.05,3.99 -36.68,7.62 -55.86,10.98 -2.27,0.59 -4.26,0.59 -5.98,0 -1.09,0 -1.95,-0.55 -2.5,-1.64 -8.48,-13.55 -17.19,-28.51 -26.25,-44.92 -0.58,-1.64 0,-3.63 1.72,-5.9 M 899.77,939.422 c -26.489,-7.891 -46.532,-23.082 -60.04,-45.703 -13.011,-22.539 -15.781,-47.071 -8.441,-73.598 7.852,-25.391 22.813,-44.332 44.801,-56.75 22.031,-11.84 45.711,-14.691 71.101,-8.48 25.387,7.89 44.329,22.578 56.759,44.058 12.96,21.961 16.67,45.711 10.97,71.102 -7.34,25.89 -21.682,45.429 -43.201,58.39 -21.949,12.969 -45.938,16.649 -71.949,10.981 m 305.62,-261.563 c -48.55,26.52 -101.01,55.039 -157.46,85.512 -3.91,2.258 -8.48,3.629 -13.52,4.219 -5.07,0 -10.15,-0.59 -15.27,-1.719 -46.8,-14.609 -94.492,-28.172 -143.05,-40.59 -5.07,-1.722 -9.84,-3.98 -14.41,-6.761 -4.489,-3.43 -7.852,-7.071 -10.121,-11.008 -34.45,-57.543 -66.329,-111.172 -95.661,-160.864 -2.808,-3.949 -3.128,-8.437 -0.82,-13.558 1.684,-4.488 5.043,-8.121 10.121,-10.969 2.852,-1.723 5.699,-3.09 8.473,-4.223 4.488,-2.847 9.34,-3.988 14.418,-3.398 5.621,0.551 9.84,2.539 12.691,5.898 30.508,30.512 62.028,63.473 94.77,99.063 24.25,-116.801 45.148,-217.231 62.687,-301.371 0.551,-3.36 3.133,-5.86 7.621,-7.578 4.493,-1.711 9.301,-1.992 14.34,-0.852 2.301,0.578 4.571,1.09 6.789,1.711 3.992,1.098 7.352,2.777 10.16,5.078 3.442,2.781 4.802,5.352 4.222,7.621 4.57,51.289 8.47,108.321 11.91,170.942 32.74,-52.461 62.34,-99.852 88.87,-142.192 1.13,-2.851 3.63,-4.492 7.62,-5.082 3.35,-0.547 6.99,-0.269 10.97,0.864 2.23,1.128 4.81,1.988 7.58,2.5 4.57,1.718 8.48,4.57 11.91,8.476 2.78,3.942 3.64,7.652 2.5,11.051 -23.67,82.383 -53.28,180.859 -88.86,295.391 45.15,-11.829 88.28,-22.891 129.49,-33.008 3.94,-0.582 8.2,0.277 12.69,2.539 4.57,2.23 8.21,5.668 11.06,10.16 1.09,1.68 2.23,3.629 3.36,5.898 2.85,5.082 3.63,10.192 2.5,15.27 -0.51,5.082 -3.09,8.711 -7.58,10.98"
         inkscape:connector-curvature="0"
         id="path16"
         style="fill:#bd198c;fill-opacity:1;fill-rule:evenodd;stroke:none" /><path
         d="m 51.6406,903.051 c -7.3398,-35 -13.2812,-69.141 -17.7695,-102.461 0,-2.77 0.2695,-5.86 0.8594,-9.328 0.5,-2.782 1.1289,-5.352 1.6406,-7.582 1.1289,-1.129 1.9883,-2.27 2.5781,-3.399 0.5391,-1.722 1.4024,-2.23 2.5,-1.722 1.1289,0 1.9922,1.132 2.6094,3.441 4.4922,21.441 9.8516,43.48 16.0625,66.012 7.8477,-84.641 23.9375,-167.571 48.1989,-248.864 1.129,-3.949 2.578,-7.07 4.219,-9.296 2.34,-2.852 3.981,-4.262 5.121,-4.262 l 1.719,0 c 1.133,0 1.992,1.14 2.5,3.398 0.582,1.723 0.582,3.953 0,6.801 -11.258,49.691 -19.688,100.973 -25.3985,154.02 15.2815,-50.188 34.4605,-100.118 57.6215,-149.797 1.097,-2.821 2.5,-5.082 4.218,-6.801 2.27,-2.231 3.91,-3.121 5.039,-2.5 l 2.582,0 c 2.219,0 3.36,1.641 3.36,5.078 0.578,3.359 0,7.031 -1.723,10.973 -32.738,89.148 -56.129,178.359 -70.2382,267.5 13.5582,-11.282 28.5192,-22.891 44.8512,-34.723 1.719,-1.098 3.43,-1.098 5.079,0 1.71,1.723 2.851,3.981 3.39,6.762 0.59,1.711 0.86,3.429 0.86,5.07 1.101,3.399 1.449,7.109 0.859,11.059 -0.617,4.492 -1.719,7.621 -3.399,9.261 -19.761,23.161 -37.531,44.918 -53.3589,65.188 -1.1328,1.133 -2.2617,1.992 -3.3516,2.543 -1.6797,0 -3.1289,-0.274 -4.2578,-0.82 -11.2109,-9.063 -21.6836,-17.231 -31.25,-24.571 -1.1406,-1.133 -2.3515,-2.543 -3.4414,-4.261 -0.5508,-2.219 -1.1289,-4.489 -1.6797,-6.719 m 16.9492,124.459 c -5.6992,-5.12 -10.1914,-13.56 -13.5507,-25.39 -3.3985,-11.921 -4.8399,-24.608 -4.2579,-38.089 0.5899,-13.051 2.8477,-22.621 6.7579,-28.871 3.9414,-6.129 8.4804,-7.34 13.5507,-3.359 5.711,4.5 10.4297,13.289 14.4219,26.25 3.3594,12.429 4.7578,25.668 4.2188,39.808 0,13.511 -1.961,23.081 -5.9414,28.791 -4.4883,5.62 -9.5703,5.86 -15.1993,0.86 M 715.27,270.672 c 4.5,0 7.89,1.488 10.199,4.258 1.64,2.851 1.371,5.941 -0.86,9.332 -26.019,38.949 -52.269,81.84 -78.789,128.679 -27.031,46.289 -53.55,96.481 -79.531,150.661 41.801,-19.18 85.231,-37.262 130.352,-54.18 4.531,-1.723 9.058,-1.992 13.558,-0.863 5.071,1.722 8.43,4.222 10.153,7.621 0.546,1.718 1.41,3.441 2.539,5.082 2.23,3.976 2.23,8.199 0,12.687 -2.27,5.121 -5.621,9.063 -10.121,11.84 -58.75,32.223 -114.29,66.332 -166.79,102.461 -3.359,2.809 -7.07,4.801 -10.98,5.941 -3.98,0.539 -7.93,0.539 -11.91,0 -32.11,-6.211 -62.891,-11.839 -92.231,-16.921 -2.769,-0.622 -5.347,-1.989 -7.621,-4.258 -2.258,-1.711 -3.976,-4.211 -5.078,-7.571 -14.68,-42.929 -27.648,-83.011 -38.98,-120.242 -1.09,-3.398 -0.782,-7.07 0.859,-10.969 2.262,-4.57 5.121,-8.21 8.481,-11.058 1.71,-1.133 3.71,-2.5 5.968,-4.223 2.782,-2.769 5.864,-4.258 9.301,-4.258 3.402,0 5.902,1.137 7.621,3.399 14.102,22 29.371,45.43 45.699,70.281 34.961,-103.832 72.539,-193.832 112.539,-270 1.723,-3.441 4.571,-6.211 8.473,-8.48 4.578,-2.301 8.789,-3.442 12.699,-3.442 1.719,-0.508 3.442,-0.508 5.078,0 3.403,0 5.981,0.59 7.622,1.723 1.71,2.269 1.992,4.488 0.859,6.758 -11.84,44.019 -23.949,93.121 -36.367,147.34 40.578,-53.629 80.66,-101.911 120.148,-144.758 2.86,-2.274 5.942,-4.223 9.34,-5.981 3.949,-1.64 7.578,-2.23 11.02,-1.64 2.261,0 4.531,0.269 6.75,0.781 m 750.86,-1.641 c 1.64,0 3.64,0.86 5.9,2.5 1.72,0.629 3.09,1.481 4.22,2.617 1.72,1.09 3.71,2.774 5.94,5 1.68,2.301 3.12,4.262 4.26,5.973 16.32,33.828 31.87,70.82 46.56,110.899 1.64,-27.649 2.5,-52.77 2.5,-75.348 0,-1.094 0.58,-1.723 1.72,-1.723 1.13,0 2.5,0.86 4.22,2.539 1.13,0.59 2.26,1.453 3.39,2.582 2.82,1.641 5.08,3.942 6.72,6.719 2.35,2.852 3.71,5.391 4.26,7.621 10.16,47.418 17.27,102.692 21.13,165.93 14.18,-1.68 27.39,-3.121 39.85,-4.25 1.72,0 3.36,0.851 5.08,2.57 1.64,2.27 3.35,4.77 5.07,7.621 0.55,1.129 1.14,2.27 1.68,3.36 1.72,3.398 2.82,6.48 3.36,9.339 0,2.77 -0.54,4.489 -1.64,5.071 -12.97,9.609 -27.38,20.039 -43.2,31.289 -1.13,0.629 -2.5,0.859 -4.22,0.859 -1.72,-0.578 -3.63,-1.359 -5.98,-2.5 -18.04,-14.14 -37.22,-27.969 -57.5,-41.519 -2.26,-1.68 -4.53,-3.629 -6.75,-5.899 -2.86,-2.851 -4.85,-5.703 -5.98,-8.48 -24.77,-41.789 -51.02,-81.832 -78.67,-120.192 -2.31,-3.398 -3.71,-6.488 -4.22,-9.339 0,-2.77 0.78,-4.489 2.5,-5.04 1.13,-0.582 2.22,-0.859 3.36,-0.859 1.72,-1.133 4.26,-0.859 7.61,0.859 2.86,1.68 5.36,3.911 7.66,6.758 22.58,25.981 43.99,52.774 64.3,80.434 -11.84,-69.453 -26.8,-129.844 -44.85,-181.133 -0.58,-2.269 0,-3.711 1.72,-4.258 M 430.859,802.309 c -15.238,-5.079 -25.937,-15.778 -32.148,-32.188 -6.211,-16.32 -6.801,-34.641 -1.723,-55.031 6.211,-20.32 16.641,-36.102 31.332,-47.352 14.102,-11.289 29.379,-15.816 45.7,-13.547 16.332,3.981 27.929,14.098 34.73,30.469 6.762,16.36 7.34,35.539 1.641,57.531 -6.719,22.039 -17.692,38.719 -32.969,49.969 -14.692,11.281 -30.152,14.641 -46.563,10.149 M 1553.28,643.988 c -10.16,-7.847 -19.18,-18.898 -27.11,-33.008 -7.34,-14.64 -11.25,-29.332 -11.83,-44.019 0,-14.102 3.39,-23.402 10.19,-27.891 6.76,-4.531 15.47,-3.129 26.25,4.219 10.12,7.34 18.6,17.77 25.39,31.332 6.76,13.508 10.39,27.34 10.98,41.481 0,14.058 -3.09,23.668 -9.34,28.75 -6.21,5.628 -14.33,5.347 -24.53,-0.864"
         inkscape:connector-curvature="0"
         id="path18"
         style="fill:#f5941c;fill-opacity:1;fill-rule:evenodd;stroke:none" /><path
         d="m 1110.62,98.8711 c 14.07,3.9879 25.4,9.6089 33.83,16.9569 9.03,6.723 13.25,13.281 12.7,19.41 -1.1,6.211 -7.07,10.203 -17.77,11.922 -11.29,1.129 -24.54,-0.32 -39.81,-4.219 -15.19,-4.57 -27.07,-10.203 -35.51,-16.961 -9.06,-6.789 -12.69,-13.281 -11.05,-19.492 2.26,-6.207 8.75,-9.8396 19.49,-10.9763 10.74,-1.7109 23.44,-0.582 38.12,3.3594 m 118.48,-5.0703 c 2.27,0.5781 4.77,1.4375 7.62,2.5703 2.77,1.1406 5.08,2.5 6.76,4.2189 1.13,0.551 1.99,1.14 2.57,1.68 2.23,1.718 3.36,3.359 3.36,5.082 0,0.589 -1.13,1.128 -3.36,1.718 -25.39,-0.59 -52.5,0 -81.28,1.641 l -6.8,0 c -2.77,-0.512 -5.63,-1.371 -8.48,-2.5 -25.94,-8.4805 -52.42,-15.8204 -79.57,-22.0313 -2.77,-1.1289 -5.58,-2.2305 -8.44,-3.3594 -2.77,-1.1289 -5.11,-2.2695 -6.75,-3.3984 -23.75,-16.9102 -46.57,-31.9102 -68.601,-44.8828 -1.719,-1.1289 -2.219,-2.2696 -1.719,-3.3594 0.629,-0.6289 2.352,-1.1289 5.121,-1.7188 1.129,0 2.578,-0.2695 4.219,-0.8203 2.27,0 5.121,0.2696 8.48,0.8203 2.85,0.5899 5.35,1.0899 7.61,1.7188 19.77,9.0586 40.39,19.1797 61.8,30.4687 1.13,-11.8398 1.99,-22.8867 2.54,-33.0078 16.41,3.3985 32.46,7.0313 48.28,10.9805 0,1.1289 0.24,1.9883 0.86,2.5391 1.09,-0.5508 1.91,-1.1407 2.5,-1.6797 15.82,4.4883 31.33,9.3281 46.56,14.3711 -3.98,9.5703 -8.2,20.3476 -12.69,32.1875 24.26,1.6406 47.42,3.9804 69.41,6.7617 M 935.352,1552.31 c 1.128,-2.85 3.628,-4.8 7.617,-5.94 2.261,-1.13 4.492,-1.99 6.801,-2.53 3.39,-1.1 7.339,-1.72 11.832,-1.72 3.988,0.62 7.027,1.72 9.339,3.39 21.95,15.28 43.119,29.34 63.469,42.31 30.43,-58.63 62.39,-130.35 95.63,-215 1.72,-3.95 4.84,-7.34 9.34,-10.16 5.07,-2.77 9.84,-4.25 14.33,-4.25 2.34,0.62 4.26,0.85 5.98,0.85 3.94,0 6.72,1.14 8.47,3.4 2.23,2.82 2.82,5.67 1.72,8.44 -10.78,51.91 -22.03,98.83 -33.86,140.55 38.86,-41.21 78.08,-86.92 117.65,-137.11 1.64,-2.81 4.49,-5.35 8.44,-7.66 3.98,-1.64 7.34,-2.5 10.12,-2.5 l 5.97,0 c 3.36,0 5.94,1.72 7.58,5.08 1.13,3.36 0.63,6.76 -1.64,10.12 -51.37,82.42 -101.91,152.38 -151.56,209.96 33.32,-11.29 65.78,-23.75 97.34,-37.23 3.44,-1.72 6.53,-2.58 9.3,-2.58 2.85,0 4.84,0.86 5.98,2.58 0,0.55 0.27,1.13 0.85,1.64 0.51,1.72 0,3.99 -1.71,6.84 -2.27,2.22 -5.12,4.22 -8.48,5.86 -39.49,21.44 -79.81,40.7 -121.02,57.61 -2.85,1.65 -5.93,2.78 -9.33,3.36 -2.85,0.55 -5.67,0.86 -8.44,0.86 -27.15,0.55 -54.49,0.28 -82.15,-0.86 -3.36,-0.58 -6.21,-1.09 -8.47,-1.71 -2.78,-1.1 -4.77,-2.23 -5.86,-3.36 -20.391,-18.64 -41.801,-39.81 -64.379,-63.48 -1.723,-1.72 -1.992,-3.98 -0.859,-6.76 m 119.378,79.57 c 14.1,0 23.94,2.5 29.65,7.58 5.07,5.12 4.72,10.98 -0.86,17.81 -6.25,6.76 -15.55,12.42 -27.93,16.92 -12.43,4.49 -25.71,6.75 -39.81,6.75 -13.55,-0.54 -23.401,-3.12 -29.651,-7.61 -5.578,-4.49 -6.207,-10.16 -1.719,-16.92 5.711,-7.34 15.039,-13.28 28.01,-17.81 13.56,-4.49 27.62,-6.72 42.31,-6.72 M 831.289,1146.8 c -59.258,27.7 -114.879,52.5 -166.801,74.54 -3.359,1.64 -7.34,2.5 -11.828,2.5 -4.5,-0.51 -8.75,-1.37 -12.699,-2.5 -38.941,-14.15 -76.441,-28.79 -112.621,-44.07 -3.391,-1.09 -7.031,-3.36 -10.969,-6.72 -3.402,-2.85 -6.211,-6.21 -8.48,-10.19 -32.153,-54.18 -61.481,-109.18 -88.012,-165.079 -2.258,-4.492 -3.117,-9.57 -2.578,-15.191 1.097,-5.078 3.437,-8.75 6.801,-11.059 1.636,-1.64 3.359,-3.09 5.078,-4.222 3.398,-2.77 7.031,-3.629 10.98,-2.539 3.981,1.761 7.11,4.261 9.328,7.621 25.391,38.949 52.461,77.299 81.293,115.159 3.91,-65.47 10.981,-132.07 21.129,-199.812 10.121,-68.238 23.949,-136.558 41.488,-204.797 1.641,-5.711 5.082,-10.429 10.122,-14.421 5.07,-3.36 10.191,-4.84 15.269,-4.219 2.262,0.59 4.492,1.097 6.762,1.719 4.488,0.511 7.929,2.5 10.148,5.859 2.821,3.992 3.992,8.211 3.403,12.699 -9.063,84.652 -12.973,171.871 -11.832,261.563 18.039,-39.493 37.5,-79.301 58.39,-119.301 20.899,-40.078 43.168,-79.61 66.84,-118.512 2.852,-5.078 6.84,-8.476 11.84,-10.199 5.109,-2.809 10.191,-3.629 15.269,-2.5 2.77,1.133 5.903,1.922 9.34,2.5 6.172,1.133 10.973,4.531 14.332,10.199 2.848,6.172 3.129,12.383 0.86,18.594 -29.34,72.808 -55.27,144.18 -77.891,214.18 -22.539,69.998 -42.578,136.558 -60.039,199.728 44.57,-10.71 91.41,-22.54 140.469,-35.51 5.66,-1.72 11.289,-1.45 16.91,0.86 5.121,1.64 9.07,5.04 11.922,10.12 1.129,1.71 2.5,3.71 4.218,5.93 2.258,5.12 2.77,10.12 1.68,15.24 -1.68,5.66 -5.121,9.57 -10.121,11.83 m -263.277,176.96 c -18.672,-7.35 -33.321,-18.64 -44.063,-33.87 -11.219,-15.78 -16.328,-31.91 -15.199,-48.24 2.27,-16.37 10.121,-27.93 23.672,-34.73 14.137,-6.21 30.738,-5.9 49.918,0.86 20.39,8.44 36.18,20.55 47.43,36.37 11.832,16.4 16.679,33.04 14.41,50 -3.36,15.78 -12.149,26.17 -26.25,31.29 -14.692,5.66 -31.328,5.07 -49.918,-1.68"
         inkscape:connector-curvature="0"
         id="path20"
         style="fill:#a6cc38;fill-opacity:1;fill-rule:evenodd;stroke:none" /><path
         d="m 1062.34,213.172 c 3.95,1.719 7.07,3.629 9.3,5.937 l 3.4,3.36 c 2.23,2.261 3.08,4.492 2.5,6.761 -1.13,2.848 -3.36,4.489 -6.76,5.071 -41.72,10.199 -85.741,22.578 -132.03,37.23 -2.77,1.758 -6.48,2.617 -10.98,2.617 -3.981,0 -7.61,-0.347 -11.051,-0.859 -35.508,-7.348 -70.508,-12.969 -104.957,-16.949 -3.953,0 -7.352,-0.86 -10.121,-2.578 -3.442,-1.141 -5.661,-2.782 -6.801,-5.043 -22.57,-25.391 -43.711,-49.098 -63.512,-71.129 -1.637,-1.141 -1.949,-3.129 -0.859,-5.899 2.34,-2.23 5.121,-3.953 8.48,-5.082 1.711,-1.129 3.711,-1.988 5.973,-2.539 3.359,-1.718 7.066,-2.582 10.976,-2.582 3.942,0 6.801,0.864 8.442,2.582 20.89,12.379 42.648,26.52 65.23,42.34 20.899,-54.219 39.809,-99.648 56.719,-136.2889 1.133,-1.7109 3.359,-2.8516 6.762,-3.3906 3.359,-1.1016 6.719,-1.4493 10.148,-0.8594 1.68,0 3.403,0.2695 5.039,0.8594 2.852,0 5.352,0.539 7.703,1.6797 2.219,1.0898 3.079,2.2187 2.5,3.3515 0.579,22.0391 1.129,47.1483 1.719,75.3983 25.93,-24.262 50.461,-45.43 73.59,-63.4803 1.129,-1.1289 3.129,-1.7188 5.98,-1.7188 3.36,0 6.44,0.2696 9.29,0.8594 1.68,0 3.64,0.2695 5.9,0.8594 3.36,0.5117 6.21,1.6406 8.48,3.3594 2.22,2.2617 3.08,3.9804 2.58,5.082 -23.17,35.5389 -50,80.1089 -80.429,133.7499 36.09,-6.211 71.359,-10.75 105.819,-13.562 3.36,-0.547 6.99,-0.27 10.97,0.863 M 821.949,360.441 c -19.179,-3.402 -33,-10.472 -41.48,-21.179 -8.438,-10.703 -9.918,-22.532 -4.219,-35.5 6.762,-12.422 18.051,-22.032 33.871,-28.832 16.328,-6.168 33.859,-8.129 52.418,-5.899 18.672,3.36 32.5,10.117 41.481,20.309 9.57,10.711 12.152,22.539 7.66,35.59 -5.66,12.968 -16.91,22.808 -33.871,29.609 -16.911,6.762 -35.539,8.75 -55.86,5.902 M 391.91,1518.44 c -12.379,-6.79 -22.851,-15.27 -31.289,-25.39 -9.062,-9.57 -14.41,-18.9 -16.09,-27.96 -1.09,-8.99 1.918,-14.34 9.258,-16.06 7.34,-1.13 17.262,1.72 29.652,8.44 13.547,7.34 25.11,16.09 34.719,26.29 9.07,10.7 14.141,20.54 15.281,29.61 0.508,7.85 -3.132,12.42 -11.062,13.55 -7.891,1.13 -18.039,-1.72 -30.469,-8.48 m 135.43,-61.83 c -32.731,7.34 -63.512,13.83 -92.262,19.53 l -6.758,0 c -2.23,-1.13 -4.8,-2.3 -7.582,-3.44 -26.008,-12.97 -50.816,-26.52 -74.527,-40.62 -2.262,-1.1 -4.492,-2.82 -6.762,-5.08 -2.847,-2.27 -5.07,-4.77 -6.789,-7.62 -27.07,-35.58 -53.051,-72.81 -77.859,-111.76 -1.711,-3.36 -2.852,-6.48 -3.352,-9.25 0,-3.44 0.781,-5.36 2.5,-5.94 0.582,-0.59 1.403,-1.13 2.5,-1.72 1.711,-1.13 3.711,-0.82 5.973,0.86 2.808,1.72 5.348,3.94 7.578,6.8 20.898,28.16 42.93,55.54 66.09,82.07 -13.551,-73.95 -21.75,-159.1 -24.61,-255.59 0,-4.57 1.45,-7.93 4.219,-10.19 2.852,-1.72 5.981,-1.72 9.34,0 1.133,0.58 2.582,1.4 4.223,2.5 2.847,1.71 5.347,4.25 7.617,7.69 2.301,3.36 3.711,6.99 4.211,10.98 9.07,63.2 20.39,122.46 33.871,177.77 12.418,-42.34 26.84,-88.63 43.199,-138.83 1.102,-2.85 3.09,-4.84 5.942,-5.93 3.359,-1.14 6.488,-0.86 9.339,0.85 2.219,1.1 4.489,1.96 6.719,2.5 4.488,2.31 8.199,5.94 10.969,11.06 2.851,5.08 3.992,9.57 3.441,13.55 -15.269,90.28 -25.121,168.17 -29.609,233.56 25.937,0 53.051,-0.78 81.211,-2.5 3.437,0.58 6.797,1.4 10.199,2.5 3.938,2.34 7.07,4.84 9.289,7.69 1.141,1.1 2.27,2.5 3.399,4.22 2.851,2.78 3.953,5.63 3.363,8.48 0,2.77 -1.641,4.76 -5.082,5.86 m 774.54,-248.83 c 2.3,-5.12 5.35,-9.06 9.29,-11.84 2.27,-1.71 4.53,-3.39 6.84,-5.11 3.36,-2.23 6.72,-3.64 10.11,-4.22 3.95,0.58 6.8,1.99 8.44,4.22 15.82,26.01 30.78,50.19 44.92,72.81 38.36,-103.28 66.61,-213.32 84.65,-330.12 0.55,-5.079 2.5,-9.329 5.9,-12.692 2.81,-2.848 5.94,-3.707 9.3,-2.578 1.13,0.59 2.26,1.129 3.4,1.719 2.85,1.133 5.07,3.121 6.79,5.941 1.14,3.391 1.64,7.031 1.64,10.969 -3.36,68.871 -10.7,135.711 -21.99,200.671 30.47,-59.85 56.13,-119.65 77.03,-179.499 1.14,-3.36 2.85,-5.93 5.08,-7.61 2.27,-1.722 4.26,-1.961 5.98,-0.863 1.64,0.621 3.08,1.133 4.22,1.723 2.26,0.539 3.9,3.121 5.04,7.609 1.09,3.988 1.09,8.211 0,12.699 -26.53,103.241 -63.17,202.301 -110.04,297.151 26.52,-18.05 51.64,-35.86 75.39,-53.4 2.22,-1.64 4.49,-2.23 6.72,-1.64 1.71,0.54 2.85,1.91 3.39,4.22 l 0,4.25 c 0.59,2.78 0,6.14 -1.68,10.12 -1.71,3.36 -3.71,6.49 -5.93,9.34 -31.02,29.88 -64.34,59.49 -99.85,88.86 -2.34,1.72 -4.84,3.36 -7.69,5.08 -2.78,0.55 -5.35,1.14 -7.62,1.68 l -68.55,0 c -2.78,0 -5.04,-0.54 -6.76,-1.68 -2.23,-1.72 -3.63,-3.71 -4.22,-5.93 -11.84,-33.87 -25.12,-70.51 -39.8,-110.04 -1.68,-3.4 -1.68,-7.35 0,-11.84 m 84.64,136.29 c 11.29,0 18.36,4.49 21.14,13.55 2.85,8.99 0.62,20.32 -6.72,33.87 -7.35,13.48 -17.54,24.81 -30.51,33.87 -12.42,8.98 -24.81,14.06 -37.23,15.19 -12.42,0.59 -20.31,-3.36 -23.67,-11.83 -3.98,-8.48 -2.3,-19.49 5.04,-33.01 7.93,-14.69 18.63,-26.84 32.19,-36.45 13.55,-9.57 26.79,-14.64 39.76,-15.19"
         inkscape:connector-curvature="0"
         id="path22"
         style="fill:#00b3e6;fill-opacity:1;fill-rule:evenodd;stroke:none" /><path
         d="m 786.91,2091.65 c -8.98,0 -43.43,0.94 -103.43,2.81 l -32.968,-212.34 c -40.313,-7 -85.121,-16.18 -134.383,-27.5 14.07,51.13 26.961,110.47 38.75,177.97 21.961,124.25 40.473,237.69 55.473,340.31 l 241.25,12.65 -20.473,-88.59 -113.117,0 -22.5,-128.59 c 15,0.39 28.59,0.62 40.777,0.62 l 35.781,0 c 11.25,0 20.16,0.24 26.719,0.78 l -11.879,-78.12 z m 47.27,187.03 3.441,92.19 c 24.367,-1.88 48.981,-2.82 73.899,-2.82 65.628,0 129.57,3.95 191.88,11.88 l -7.66,-38.59 c -2.42,-10.86 -4.65,-22 -6.72,-33.44 -2.11,-11.49 -4.06,-21.41 -5.93,-29.85 -10.86,-2.81 -21.68,-4.84 -32.5,-6.09 -10.75,-1.17 -21.25,-2.66 -31.57,-4.53 -8.43,-36.06 -16.87,-80.78 -25.309,-134.22 -18.75,-118.12 -31.871,-204.18 -39.371,-258.12 l -129.379,-20.47 c 38.008,178.2 63.59,317.69 76.719,418.43 -11.25,1.45 -22.5,1.92 -33.75,1.41 -11.25,-0.43 -22.5,0.98 -33.75,4.22 z m 462.19,-187.03 c -8.99,0 -43.44,0.94 -103.44,2.81 l -32.97,-212.34 c -40.31,-7 -85.12,-16.18 -134.37,-27.5 14.06,51.13 26.95,110.47 38.75,177.97 21.95,124.25 40.46,237.69 55.46,340.31 l 241.25,12.65 -20.46,-88.59 -113.13,0 -22.5,-128.59 c 15,0.39 28.59,0.62 40.78,0.62 l 35.78,0 c 11.25,0 20.16,0.24 26.72,0.78"
         inkscape:connector-curvature="0"
         id="path24"
         style="fill:#28398b;fill-opacity:1;fill-rule:nonzero;stroke:none" /></g></g></svg>